<svg version="1.0" xmlns="http://www.w3.org/2000/svg" width="865.000000pt" height="865.000000pt" viewBox="0 0 865.000000 865.000000" preserveAspectRatio="xMidYMid meet">
<g transform="translate(0.000000,865.000000) scale(0.100000,-0.100000)" fill="#fcf7e6" stroke="none">
<path d="M4120 8643 c-1279 -61 -2472 -690 -3242 -1708 -845 -1118 -1097
-2557 -682 -3905 47 -152 170 -459 243 -607 221 -448 509 -844 867 -1193 165
-161 235 -221 403 -348 655 -495 1377 -779 2201 -864 188 -19 698 -16 880 5
197 24 404 61 590 108 1044 261 1970 920 2561 1824 560 856 801 1897 673 2905
-160 1263 -862 2388 -1924 3082 -758 496 -1667 744 -2570 701z m531 -798
c1231 -118 2291 -846 2843 -1952 180 -359 296 -753 348 -1178 20 -166 17 -665
-6 -825 -65 -468 -197 -878 -403 -1255 -519 -947 -1424 -1602 -2484 -1794
-384 -70 -862 -70 -1250 0 -971 174 -1837 756 -2363 1588 -303 479 -481 1004
-537 1585 -15 158 -6 612 15 766 37 266 105 538 190 767 439 1179 1453 2032
2686 2257 116 21 201 32 390 49 101 10 436 5 571 -8z"/>
<path d="M4230 6276 c-108 -32 -183 -87 -239 -174 -63 -98 -62 -82 -59 -1018
l3 -849 24 -60 c34 -84 134 -183 216 -214 238 -90 489 48 534 293 15 82 15
1630 0 1712 -32 176 -183 309 -361 320 -45 2 -90 -1 -118 -10z"/>
<path d="M4192 3121 c-329 -122 -349 -573 -32 -725 59 -28 74 -31 165 -31 91
0 106 3 165 31 95 46 143 93 187 182 36 72 38 81 38 172 0 91 -2 100 -38 172
-43 87 -98 142 -185 185 -76 37 -219 44 -300 14z"/>
</g>
</svg>
