<svg version="1.0" xmlns="http://www.w3.org/2000/svg" viewBox="0 0 877.000000 877.000000" preserveAspectRatio="xMidYMid meet">
<g transform="translate(0.000000,877.000000) scale(0.100000,-0.100000)" fill="#000000" stroke="none">
<path d="M4105 8760 c-1082 -79 -2067 -526 -2815 -1279 -747 -752 -1182 -1694
-1271 -2758 -17 -209 -7 -663 20 -873 90 -699 328 -1332 718 -1909 638 -944
1622 -1608 2728 -1840 306 -64 572 -91 909 -91 492 0 914 69 1381 225 501 167
935 405 1362 747 474 379 892 897 1169 1449 491 980 594 2131 284 3185 -214
731 -611 1386 -1162 1920 -716 693 -1648 1122 -2638 1214 -161 15 -542 20
-685 10z m790 -659 c258 -38 459 -86 684 -161 941 -316 1734 -1011 2174 -1906
226 -462 355 -967 375 -1477 29 -719 -124 -1367 -473 -2003 -91 -165 -302
-465 -439 -624 -68 -78 -346 -351 -428 -418 -710 -588 -1587 -894 -2493 -869
-252 7 -422 26 -651 72 -1293 262 -2356 1189 -2796 2440 -87 248 -146 504
-184 800 -23 173 -26 650 -6 820 87 746 353 1385 821 1975 106 134 412 437
561 556 574 458 1220 726 1952 809 191 22 719 14 903 -14z"/>
<path d="M2350 5837 c0 -8 27 -94 61 -193 34 -98 107 -316 164 -484 92 -271
424 -1251 919 -2715 91 -269 166 -491 166 -492 0 -2 283 -3 628 -3 l629 0 353
1043 c194 573 433 1281 532 1572 346 1022 428 1265 428 1275 0 6 -188 10 -524
10 l-524 0 -21 -62 c-32 -99 -851 -2776 -851 -2782 0 -15 -39 -4 -44 12 -3 9
-126 413 -275 897 -372 1214 -561 1831 -578 1888 l-14 47 -524 0 c-431 0 -525
-2 -525 -13z"/>
</g>
</svg>
